HIERARCHY
ROOT Hips
{
	OFFSET 0.00000 0.00000 0.00000
	CHANNELS 6 Xposition Yposition Zposition Yrotation Zrotation Xrotation 
	JOINT Lumbar
	{
		OFFSET 0 0 0
		CHANNELS 3 Zrotation Xrotation Yrotation
		JOINT Neck
		{
			OFFSET 0.00 0.2701 0.00
			CHANNELS 3 Zrotation Xrotation Yrotation
			End Site
			{
				OFFSET 0.00 0.1379 0.00
			}
		}
		JOINT RightShoulder
		{
			OFFSET 0.0119 0.2289 0.1181
			CHANNELS 3 Zrotation Xrotation Yrotation
			JOINT RightElbow
			{
				OFFSET 0.00 -0.1475 0.00
				CHANNELS 2 Zrotation Yrotation
				JOINT RightWrist
				{
					OFFSET 0.00 -0.1605 0.00
					CHANNELS 2 Zrotation Xrotation
					End Site
					{
						OFFSET 0.0040 -0.1068 0.0006
					}
				}
			}
		}
		JOINT LeftShoulder
		{
			OFFSET 0.0119 0.2289 -0.1181
			CHANNELS 3 Zrotation Xrotation Yrotation
			JOINT LeftElbow
			{
				OFFSET 0.00 -0.1475 0.00
				CHANNELS 2 Zrotation Yrotation
				JOINT LeftWrist
				{
					OFFSET 0.00 -0.1605 0.00
					CHANNELS 2 Zrotation Xrotation
					End Site
					{
						OFFSET 0.0040 -0.1068 -0.0006
					}
				}
			}
		}
	}
	JOINT RightHip
	{
		OFFSET 0.0316 -0.0424 0.0458
		CHANNELS 3 Zrotation Xrotation Yrotation
		JOINT RightKnee
		{
			OFFSET 0.00 -0.2438 0.00
			CHANNELS 1 Zrotation
			JOINT RightAnkle
			{
				OFFSET 0.00 -0.2449 0.00
				CHANNELS 3 Zrotation Xrotation Yrotation
				End Site
				{
					OFFSET 0.1237 -0.0542 0.0051
				}
			}
		}
	}
	JOINT LeftHip
	{
		OFFSET 0.0316 -0.0424 -0.0458
		CHANNELS 3 Zrotation Xrotation Yrotation
		JOINT LeftKnee
		{
			OFFSET 0.00 -0.2438 0.00
			CHANNELS 1 Zrotation
			JOINT LeftAnkle
			{
				OFFSET 0.00 -0.2449 0.00
				CHANNELS 3 Zrotation Xrotation Yrotation
				End Site
				{
					OFFSET 0.1237 -0.0542 -0.0051
				}
			}
		}
	}
}
MOTION
Frames: 17
Frame Time: 0.02
0 0.57926 0 175.97032 0 -4.6059 5.71663 5.4853 -0.71133 -18.80393 2.89325 4.04981 21.44638 -71.23988 -68.47091 20.96325 73.32553 -32.73006 -2.85064 32.75123 61.55629 51.36292 15.98455 -104.30179 -30.86964 6.5229 -3.22716 4.78897 -1.233 -7.53436 2.75593 -5.33659 -9.01761 -5.81902 6.17353 4.08507 -5.48328 7.13656 7.04891 10.23069
-0.0001 0.57924 -1e-05 175.9697 0 -4.60582 5.76577 5.49132 -0.70782 -18.91845 2.99146 4.04899 21.35878 -71.27281 -68.62231 20.89451 73.20819 -32.5924 -2.83837 32.71629 61.56742 51.6287 15.96405 -104.1603 -30.70438 6.51241 -3.24329 4.79713 -1.12497 -7.52215 2.7568 -5.32745 -9.12509 -5.81638 6.17265 4.04677 -5.50842 7.15132 7.06804 10.26906
-0.0002 0.57923 -2e-05 175.96906 0 -4.60572 5.81488 5.49723 -0.70399 -19.03279 3.0887 4.04795 21.27127 -71.30534 -68.77349 20.8267 73.09167 -32.45549 -2.82626 32.68208 61.57944 51.89114 15.94437 -104.01685 -30.54044 6.50171 -3.25942 4.80525 -1.01754 -7.50991 2.75768 -5.31839 -9.23192 -5.81384 6.17179 4.00906 -5.53334 7.16606 7.08687 10.30686
-0.00031 0.57921 -3e-05 175.96846 0 -4.60557 5.86421 5.50288 -0.69918 -19.14695 3.18308 4.04591 21.18294 -71.33664 -68.92549 20.76171 72.97744 -32.32069 -2.81461 32.65057 61.59547 52.14469 15.92709 -103.86271 -30.38036 6.49013 -3.27571 4.81329 -0.91106 -7.49744 2.75849 -5.30955 -9.33767 -5.81164 6.17104 3.9733 -5.5576 7.1809 7.10455 10.34257
-0.00041 0.57919 -4e-05 175.96775 0 -4.60571 5.91224 5.51005 -0.69992 -19.26135 3.29265 4.04902 21.09853 -71.37454 -69.07346 20.68155 72.8512 -32.17527 -2.80044 32.60488 61.59069 52.44753 15.89628 -103.76346 -30.20006 6.48327 -3.29115 4.82179 -0.79906 -7.48617 2.7595 -5.29952 -9.44966 -5.8076 6.16975 3.92719 -5.58534 7.19524 7.12812 10.38913
-0.00051 0.57917 -6e-05 175.9672 0 -4.60522 5.96307 5.51392 -0.68869 -19.37564 3.36997 4.04132 21.00621 -71.39841 -69.22957 20.6337 72.75042 -32.05206 -2.79168 32.58914 61.62964 52.64431 15.89469 -103.54937 -30.06255 6.46636 -3.30835 4.82928 -0.69918 -7.4724 2.76021 -5.29206 -9.54801 -5.80747 6.1696 3.90303 -5.6057 7.2106 7.13935 10.41283
-0.00061 0.57915 -9e-05 175.96783 0 -4.60293 6.02246 5.50886 -0.64473 -19.48849 3.35733 4.00182 20.88682 -71.38257 -69.41459 20.67575 72.72113 -31.99255 -2.79758 32.65963 61.79694 52.55584 15.97173 -102.99044 -30.04499 6.42101 -3.33119 4.83425 -0.62829 -7.45094 2.75923 -5.29139 -9.61301 -5.81845 6.17274 3.94075 -5.60546 7.22972 7.11454 10.37062
-0.00072 0.57913 -0.00013 175.96853 0 -4.6 6.08458 5.50041 -0.58861 -19.60156 3.31231 3.95171 20.76077 -71.35252 -69.60631 20.75026 72.71779 -31.95497 -2.80903 32.75984 62.00688 52.35906 16.0786 -102.31992 -30.07015 6.36563 -3.35567 4.83816 -0.57032 -7.42709 2.75812 -5.29339 -9.66357 -5.8333 6.17702 4.00039 -5.59783 7.24977 7.07759 10.30577
-0.00082 0.57911 -0.00017 175.96865 0 -4.5974 6.14497 5.49341 -0.53767 -19.71547 3.28268 3.90768 20.6404 -71.32985 -69.79168 20.80967 72.70112 -31.90572 -2.81811 32.8442 62.19295 52.20637 16.1735 -101.71793 -30.07476 6.31519 -3.37889 4.84237 -0.50931 -7.40483 2.75764 -5.29438 -9.71789 -5.84623 6.1807 4.0493 -5.59373 7.26879 7.04746 10.25304
-0.00093 0.57909 -0.00021 175.97086 0 -4.59463 6.20742 5.48684 -0.48795 -19.8255 3.25013 3.85841 20.50682 -71.30417 -69.99314 20.87093 72.68888 -31.86363 -2.82644 32.93825 62.39916 52.07422 16.26233 -101.04136 -30.08472 6.263 -3.40431 4.84733 -0.43654 -7.38045 2.75476 -5.2945 -9.78373 -5.85995 6.18472 4.10165 -5.58884 7.29024 7.0119 10.19264
-0.00102 0.57908 -0.00025 175.96901 0 -4.59206 6.26623 5.4785 -0.4331 -19.94352 3.21605 3.81746 20.40172 -71.28026 -70.15997 20.93559 72.67619 -31.81191 -2.83776 33.01942 62.57206 51.87499 16.37011 -100.49295 -30.09299 6.21227 -3.42552 4.85052 -0.39108 -7.35992 2.75686 -5.29706 -9.82253 -5.87282 6.18832 4.15178 -5.58391 7.307 6.9847 10.14277
-0.00107 0.57906 -0.0003 175.95372 0 -4.5903 6.3143 5.46672 -0.36449 -20.08505 3.18525 3.80284 20.3571 -71.27351 -70.24995 21.00555 72.63564 -31.72921 -2.85529 33.05701 62.65349 51.50045 16.53005 -100.33189 -30.09314 6.16637 -3.43456 4.84865 -0.41982 -7.3506 2.77263 -5.30578 -9.78711 -5.88322 6.19012 4.19249 -5.58014 7.30936 6.98409 10.12834
-0.00111 0.57904 -0.00035 175.93475 0 -4.58874 6.35866 5.45322 -0.29154 -20.2344 3.15415 3.79687 20.34639 -71.26676 -70.29899 21.07716 72.5991 -31.63703 -2.87592 33.08157 62.69665 51.06234 16.70699 -100.30292 -30.08952 6.12262 -3.43924 4.84511 -0.47513 -7.34531 2.79343 -5.31685 -9.72559 -5.89241 6.1915 4.22976 -5.57675 7.3072 6.99223 10.12523
-0.00115 0.57902 -0.00041 175.91899 0 -4.587 6.40468 5.44005 -0.22237 -20.37914 3.12338 3.78638 20.33141 -71.25508 -70.35601 21.14537 72.57201 -31.54706 -2.89537 33.11161 62.75173 50.66789 16.87116 -100.20886 -30.0822 6.07894 -3.44608 4.84261 -0.51711 -7.3381 2.81202 -5.3268 -9.67797 -5.90165 6.19331 4.26728 -5.57346 7.30795 6.99601 10.1163
-0.0012 0.579 -0.00046 175.89688 0 -4.58557 6.45075 5.42844 -0.14549 -20.52816 3.09047 3.77777 20.26365 -71.26637 -70.46656 21.2256 72.49179 -31.46193 -2.91341 33.1413 62.83645 50.21923 17.05657 -100.1305 -30.09641 6.03039 -3.45251 4.83892 -0.56522 -7.33087 2.83035 -5.33706 -9.62103 -5.91334 6.1942 4.31127 -5.5685 7.30518 7.00093 10.10911
-0.00124 0.57898 -0.00051 175.88692 0 -4.58359 6.496 5.41348 -0.08336 -20.67036 3.0626 3.76772 20.32087 -71.22668 -70.44524 21.28114 72.53094 -31.37017 -2.93585 33.17231 62.84346 49.85484 17.20276 -100.05449 -30.06786 5.99274 -3.45837 4.83729 -0.60625 -7.32504 2.85032 -5.34721 -9.57775 -5.91932 6.19683 4.34047 -5.56754 7.30858 7.0058 10.10168
-0.00124 0.57892 -0.0006 175.91331 0 -4.57963 6.53816 5.38742 -0.06687 -20.78948 3.04686 3.74907 20.65691 -71.0713 -70.15713 21.2632 72.83163 -31.20666 -2.96317 33.17609 62.69631 49.86249 17.22406 -99.93576 -29.88876 5.98436 -3.46674 4.84191 -0.62541 -7.319 2.87467 -5.35653 -9.57659 -5.91206 6.2048 4.33098 -5.57484 7.3308 7.00772 10.08769
